<svg width="32" height="33" xmlns="http://www.w3.org/2000/svg" xmlns:xlink="http://www.w3.org/1999/xlink" overflow="hidden"><defs><clipPath id="clip0"><rect x="952" y="357" width="32" height="33"/></clipPath></defs><g clip-path="url(#clip0)" transform="translate(-952 -357)"><path d="M2.66667 6.66667 2.66667 25.3333 29.3333 25.3333 29.3333 6.66667 2.66667 6.66667ZM16.4667 18.3C16.2 18.5667 15.8 18.5667 15.5333 18.3L5.66667 8.66667 26.3667 8.66667 16.4667 18.3ZM11.1667 15.9 4.66667 22.4333 4.66667 9.53333 11.1667 15.9ZM12.1333 16.8333 14.6333 19.2667C15.0333 19.6333 15.5333 19.8333 16.0333 19.8333 16.5333 19.8333 17.0333 19.6333 17.4333 19.2667L19.9333 16.8333 26.4 23.3333 5.63333 23.3333 12.1333 16.8333ZM20.8333 15.9 27.3333 9.56667 27.3333 22.4 20.8333 15.9Z" stroke="#000000" stroke-width="0.666667" transform="matrix(1 0 0 1.03125 952 357)"/></g></svg>